<?xml version="1.0" encoding="UTF-8" standalone="no"?>
<!-- Generator: Adobe Illustrator 16.0.4, SVG Export Plug-In . SVG Version: 6.00 Build 0)  -->
<!DOCTYPE svg  PUBLIC '-//W3C//DTD SVG 1.1//EN'  'http://www.w3.org/Graphics/SVG/1.1/DTD/svg11.dtd'>
<svg id="Layer_1" xmlns="http://www.w3.org/2000/svg" xml:space="preserve" height="39.75px" viewBox="0 0 150 39.75" width="150px" version="1.1" y="0px" x="0px" xmlns:xlink="http://www.w3.org/1999/xlink" enable-background="new 0 0 150 39.75">
<polygon points="31.046 34.485 16.392 19.857 31.046 5.229 26.294 0.475 7.006 19.738 7.006 1.033 0.003 1.033 0.003 38.682 7.006 38.682 7.006 19.977 26.294 39.239" fill="#FC8500"/>
<g fill="#FC8500">
	<rect y="19.858" x="111.78" height="18.824" width="7.004"/>
	<polygon points="145.05 1.033 145.05 1.033 131.18 14.906 116.74 0.475 111.92 5.295 131.18 24.545 143 12.721 143 38.682 150 38.682 150 1.033"/>
</g>
<path d="m87.21 7.632c-6.741 0-12.226 5.483-12.226 12.225 0 6.741 5.484 12.225 12.226 12.225s12.225-5.483 12.225-12.225c0-6.741-5.484-12.225-12.225-12.225m0 31.607c-10.688 0-19.383-8.694-19.383-19.382s8.695-19.382 19.383-19.382c10.687 0 19.38 8.695 19.38 19.382s-8.694 19.382-19.38 19.382" fill="#FC8500"/>
<path d="m60.313 28.684c-2.197 2.104-5.174 3.398-8.448 3.398-6.742 0-12.226-5.483-12.226-12.225s5.484-12.225 12.226-12.225c3.274 0 6.251 1.295 8.448 3.4l5.055-5.058c-3.492-3.4-8.256-5.498-13.503-5.498-10.688 0-19.383 8.693-19.383 19.381s8.694 19.382 19.383 19.382c5.247 0 10.011-2.101 13.503-5.501l-5.055-5.054z" fill="#FC8500"/>
</svg>
